<svg xmlns="http://www.w3.org/2000/svg" version="1.1" xmlns:xlink="http://www.w3.org/1999/xlink" xmlns:svgjs="http://svgjs.dev/svgjs" width="1000" height="1000" viewBox="0 0 1000 1000"><rect width="1000" height="1000" fill="#ffffff"></rect><g transform="matrix(0.7,0,0,0.7,149.57577853738053,291.7239218831752)"><svg viewBox="0 0 396 236" data-background-color="#ffffff" preserveAspectRatio="xMidYMid meet" height="595" width="1000" xmlns="http://www.w3.org/2000/svg" xmlns:xlink="http://www.w3.org/1999/xlink"><g id="tight-bounds" transform="matrix(1,0,0,1,0.23998814171045524,0.014776555991971918)"><svg viewBox="0 0 395.52 235.97044688801606" height="235.97044688801606" width="395.52"><g><svg viewBox="0 0 395.52 235.97044688801606" height="235.97044688801606" width="395.52"><g transform="matrix(1,0,0,1,0,132.13653907238478)"><svg viewBox="0 0 395.52 103.83390781563126" height="103.83390781563126" width="395.52"><g id="textblocktransform"><svg viewBox="0 0 395.52 103.83390781563126" height="103.83390781563126" width="395.52" id="textblock"><g><svg viewBox="0 0 395.52 103.83390781563126" height="103.83390781563126" width="395.52"><g transform="matrix(1,0,0,1,0,0)"><svg width="395.52" viewBox="2.0999999046325684 -35.599998474121094 174.62998962402344 45.849998474121094" height="103.83390781563126" data-palette-color="#ffffff"><path d="M13.6 0.6L13.6 0.6Q10.15 0.6 7.2-0.7 4.25-2 2.1-4.25L2.1-4.25 4.6-7.15Q6.35-5.3 8.72-4.17 11.1-3.05 13.65-3.05L13.65-3.05Q16.9-3.05 18.7-4.53 20.5-6 20.5-8.4L20.5-8.4Q20.5-9.65 20.08-10.53 19.65-11.4 18.93-12.03 18.2-12.65 17.2-13.15 16.2-13.65 15.05-14.2L15.05-14.2 10.35-16.25Q9.2-16.75 8-17.45 6.8-18.15 5.85-19.15 4.9-20.15 4.3-21.53 3.7-22.9 3.7-24.7L3.7-24.7Q3.7-26.55 4.48-28.15 5.25-29.75 6.63-30.93 8-32.1 9.88-32.75 11.75-33.4 14-33.4L14-33.4Q16.95-33.4 19.45-32.27 21.95-31.15 23.7-29.35L23.7-29.35 21.45-26.65Q19.95-28.1 18.13-28.93 16.3-29.75 14-29.75L14-29.75Q11.25-29.75 9.58-28.48 7.9-27.2 7.9-24.95L7.9-24.95Q7.9-23.75 8.38-22.93 8.85-22.1 9.65-21.48 10.45-20.85 11.4-20.38 12.35-19.9 13.35-19.5L13.35-19.5 18-17.5Q19.4-16.9 20.65-16.13 21.9-15.35 22.8-14.33 23.7-13.3 24.23-11.93 24.75-10.55 24.75-8.75L24.75-8.75Q24.75-6.8 23.98-5.1 23.2-3.4 21.75-2.13 20.3-0.85 18.25-0.13 16.2 0.6 13.6 0.6ZM37.9 0.6L37.9 0.6Q34 0.6 32.22-1.8 30.45-4.2 30.45-8.9L30.45-8.9 30.45-24.3 34.6-24.3 34.6-9.45Q34.6-6 35.67-4.48 36.75-2.95 39.15-2.95L39.15-2.95Q41.05-2.95 42.5-3.93 43.95-4.9 45.7-7.05L45.7-7.05 45.7-24.3 49.8-24.3 49.8 0 46.4 0 46.05-3.8 45.9-3.8Q44.2-1.8 42.32-0.6 40.45 0.6 37.9 0.6ZM62.1 10.25L58 10.25 58-24.3 61.4-24.3 61.75-21.5 61.9-21.5Q63.55-22.9 65.52-23.9 67.5-24.9 69.65-24.9L69.65-24.9Q72-24.9 73.8-24.03 75.6-23.15 76.8-21.53 78-19.9 78.62-17.63 79.25-15.35 79.25-12.5L79.25-12.5Q79.25-9.4 78.4-6.98 77.55-4.55 76.1-2.85 74.65-1.15 72.75-0.28 70.85 0.6 68.75 0.6L68.75 0.6Q67.05 0.6 65.37-0.15 63.7-0.9 62-2.2L62-2.2 62.1 2.05 62.1 10.25ZM68.05-2.85L68.05-2.85Q69.55-2.85 70.82-3.53 72.1-4.2 73.02-5.43 73.95-6.65 74.47-8.45 75-10.25 75-12.5L75-12.5Q75-14.5 74.65-16.15 74.3-17.8 73.52-18.98 72.75-20.15 71.52-20.8 70.3-21.45 68.6-21.45L68.6-21.45Q67.05-21.45 65.47-20.6 63.9-19.75 62.1-18.15L62.1-18.15 62.1-5.4Q63.75-4 65.3-3.43 66.85-2.85 68.05-2.85ZM89.84 10.25L85.74 10.25 85.74-24.3 89.14-24.3 89.49-21.5 89.64-21.5Q91.29-22.9 93.27-23.9 95.24-24.9 97.39-24.9L97.39-24.9Q99.74-24.9 101.54-24.03 103.34-23.15 104.54-21.53 105.74-19.9 106.37-17.63 106.99-15.35 106.99-12.5L106.99-12.5Q106.99-9.4 106.14-6.98 105.29-4.55 103.84-2.85 102.39-1.15 100.49-0.28 98.59 0.6 96.49 0.6L96.49 0.6Q94.79 0.6 93.12-0.15 91.44-0.9 89.74-2.2L89.74-2.2 89.84 2.05 89.84 10.25ZM95.79-2.85L95.79-2.85Q97.29-2.85 98.57-3.53 99.84-4.2 100.77-5.43 101.69-6.65 102.22-8.45 102.74-10.25 102.74-12.5L102.74-12.5Q102.74-14.5 102.39-16.15 102.04-17.8 101.27-18.98 100.49-20.15 99.27-20.8 98.04-21.45 96.34-21.45L96.34-21.45Q94.79-21.45 93.22-20.6 91.64-19.75 89.84-18.15L89.84-18.15 89.84-5.4Q91.49-4 93.04-3.43 94.59-2.85 95.79-2.85ZM117.84 0.6L117.84 0.6Q115.49 0.6 114.49-0.8 113.49-2.2 113.49-4.9L113.49-4.9 113.49-35.6 117.59-35.6 117.59-4.6Q117.59-3.6 117.94-3.2 118.29-2.8 118.74-2.8L118.74-2.8Q118.94-2.8 119.12-2.8 119.29-2.8 119.64-2.9L119.64-2.9 120.19 0.2Q119.79 0.4 119.24 0.5 118.69 0.6 117.84 0.6ZM130.34 0L126.24 0 126.24-24.3 130.34-24.3 130.34 0ZM128.34-29.3L128.34-29.3Q127.14-29.3 126.31-30.05 125.49-30.8 125.49-31.95L125.49-31.95Q125.49-33.15 126.31-33.88 127.14-34.6 128.34-34.6L128.34-34.6Q129.54-34.6 130.36-33.88 131.19-33.15 131.19-31.95L131.19-31.95Q131.19-30.8 130.36-30.05 129.54-29.3 128.34-29.3ZM148.39 0.6L148.39 0.6Q145.94 0.6 143.81-0.28 141.69-1.15 140.11-2.78 138.54-4.4 137.64-6.75 136.74-9.1 136.74-12.1L136.74-12.1Q136.74-15.1 137.66-17.48 138.59-19.85 140.11-21.5 141.64-23.15 143.59-24.03 145.54-24.9 147.64-24.9L147.64-24.9Q149.94-24.9 151.76-24.1 153.59-23.3 154.81-21.8 156.04-20.3 156.69-18.2 157.34-16.1 157.34-13.5L157.34-13.5Q157.34-12.85 157.31-12.23 157.29-11.6 157.19-11.15L157.19-11.15 140.79-11.15Q141.04-7.25 143.21-4.98 145.39-2.7 148.89-2.7L148.89-2.7Q150.64-2.7 152.11-3.23 153.59-3.75 154.94-4.6L154.94-4.6 156.39-1.9Q154.79-0.9 152.84-0.15 150.89 0.6 148.39 0.6ZM140.74-14.1L140.74-14.1 153.74-14.1Q153.74-17.8 152.16-19.73 150.59-21.65 147.74-21.65L147.74-21.65Q146.44-21.65 145.26-21.15 144.09-20.65 143.14-19.68 142.19-18.7 141.56-17.3 140.94-15.9 140.74-14.1ZM167.43 0L163.33 0 163.33-24.3 166.73-24.3 167.08-19.9 167.23-19.9Q168.48-22.2 170.26-23.55 172.03-24.9 174.13-24.9L174.13-24.9Q175.58-24.9 176.73-24.4L176.73-24.4 175.93-20.8Q175.33-21 174.83-21.1 174.33-21.2 173.58-21.2L173.58-21.2Q172.03-21.2 170.36-19.95 168.68-18.7 167.43-15.6L167.43-15.6 167.43 0Z" opacity="1" transform="matrix(1,0,0,1,0,0)" fill="#000000" class="wordmark-text-0" data-fill-palette-color="primary" id="text-0"></path></svg></g></svg></g></svg></g></svg></g><g transform="matrix(1,0,0,1,143.94807727454906,0)"><svg viewBox="0 0 107.62384545090183 107.62384545090183" height="107.62384545090183" width="107.62384545090183"><g><svg></svg></g><g id="icon-0"><svg viewBox="0 0 107.62384545090183 107.62384545090183" height="107.62384545090183" width="107.62384545090183"><g><path xmlns="http://www.w3.org/2000/svg" d="M32.287 107.624c-17.832 0-32.287-14.455-32.287-32.287v-43.05c0-17.832 14.455-32.287 32.287-32.287h43.05c17.832 0 32.287 14.455 32.287 32.287v43.05c0 17.832-14.455 32.287-32.287 32.287z" fill="#000000" fill-rule="nonzero" stroke="none" stroke-width="1" stroke-linecap="butt" stroke-linejoin="miter" stroke-miterlimit="10" stroke-dasharray="" stroke-dashoffset="0" font-family="none" font-weight="none" font-size="none" text-anchor="none" style="mix-blend-mode: normal" data-fill-palette-color="accent"></path></g><g transform="matrix(1,0,0,1,21.524769090180364,25.747931505120214)"><svg viewBox="0 0 64.5743072705411 56.1279824406614" height="56.1279824406614" width="64.5743072705411"><g><svg xmlns="http://www.w3.org/2000/svg" xmlns:xlink="http://www.w3.org/1999/xlink" version="1.1" x="0" y="0" viewBox="4.998557090759277 14.808501243591309 150.00289916992188 130.38250732421875" style="enable-background:new 0 0 160 160;" xml:space="preserve" height="56.1279824406614" width="64.5743072705411" class="icon-s-0" data-fill-palette-color="quaternary" id="s-0"><g fill="#ffffff" data-fill-palette-color="quaternary"><path d="M84.364 104.815v6.759H72.083c1.712 2.057 3.063 4.423 3.965 7h36.021c1.933 0 3.5-1.567 3.5-3.5V68.488c0-1.933-1.567-3.5-3.5-3.5H65.661c-1.933 0-3.5 1.567-3.5 3.5v36.187c2.576 0.902 4.943 2.256 7 3.973V71.988h15.203v6.759h9v-6.759h15.204v39.586H93.364v-6.759H84.364z" fill="#ffffff" data-fill-palette-color="quaternary"></path><path d="M135.18 126.165c0 1.933 1.567 3.5 3.5 3.5s3.5-1.567 3.5-3.5V48.936l-7-2.273V126.165z" fill="#ffffff" data-fill-palette-color="quaternary"></path><path d="M17.821 124.415c0 2.138 1.919 3.829 4.128 3.445 1.707-0.297 2.872-1.911 2.872-3.644l0-77.553-7 2.273V124.415z" fill="#ffffff" data-fill-palette-color="quaternary"></path><path d="M151.544 37.782l-70-22.729c-1.004-0.326-2.084-0.326-3.088 0l-70 22.729c-2.627 0.854-4.064 3.674-3.212 6.3 0.854 2.626 3.674 4.061 6.3 3.212L80 25.067l68.456 22.228c0.513 0.166 1.033 0.245 1.545 0.245 2.108 0 4.068-1.344 4.755-3.457C155.608 41.456 154.171 38.636 151.544 37.782z" fill="#ffffff" data-fill-palette-color="quaternary"></path><path d="M118.286 122.55H73.485c-1.435-7.746-7.53-13.86-15.254-15.303V60.4c0-6.549-5.313-11.876-11.844-11.876H33.752c-1.933 0-3.5 1.567-3.5 3.5s1.567 3.5 3.5 3.5h12.635c2.671 0 4.844 2.188 4.844 4.876v46.847c-8.857 1.655-15.589 9.45-15.589 18.803 0 10.554 8.563 19.141 19.089 19.141 9.332 0 17.108-6.755 18.754-15.641h44.802c1.933 0 3.5-1.567 3.5-3.5S120.219 122.55 118.286 122.55zM54.73 134.191c-4.46 0-8.089-3.652-8.089-8.141s3.629-8.141 8.089-8.141 8.089 3.652 8.089 8.141S59.19 134.191 54.73 134.191z" fill="#ffffff" data-fill-palette-color="quaternary"></path></g></svg></g></svg></g></svg></g></svg></g><g></g></svg></g><defs></defs></svg><rect width="395.52" height="235.97044688801606" fill="none" stroke="none" visibility="hidden"></rect></g></svg></g></svg>